<svg height="511pt" viewBox="-2 0 511 511.9992" width="511pt" xmlns="http://www.w3.org/2000/svg"><path d="m6.367188 3.101562c-3.699219 2.835938-5.867188 7.234376-5.867188 11.898438v371.332031c0 6.792969 4.566406 12.738281 11.132812 14.492188l109.203126 29.144531v-402.273438l-101.453126-27.183593c-4.503906-1.207031-9.316406-.25-13.015624 2.589843zm0 0"/><path d="m244.5 222.003906v-218.59375l-93.664062 24.421875v402.039063l36.398437-9.457032c-6.304687-18.324218-9.734375-37.976562-9.734375-58.414062 0-56.488281 26.164062-106.972656 67-139.996094zm0 0"/><path d="m390.5 185.042969v-136.6875c0-6.6875-4.429688-12.566407-10.855469-14.414063l-105.144531-30.234375v198.609375c24.851562-12.96875 53.082031-20.316406 83-20.316406 11.269531 0 22.296875 1.050781 33 3.042969zm0 0"/><path d="m337.742188 318.253906c-6.148438 0-12.292969 2.339844-16.972657 7.019532-9.355469 9.355468-9.355469 24.582031 0 33.9375 9.355469 9.359374 24.585938 9.359374 33.941407 0 9.359374-9.355469 9.359374-24.582032 0-33.941407-4.675782-4.675781-10.824219-7.015625-16.96875-7.015625zm0 0"/><path d="m357.5 212c-82.710938 0-150 67.289062-150 150s67.289062 150 150 150 150-67.289062 150-150-67.289062-150-150-150zm69.339844 219.339844c-2.929688 2.925781-6.769532 4.390625-10.605469 4.390625-3.839844 0-7.679687-1.464844-10.609375-4.390625l-41.816406-41.820313c-8.085938 4.453125-17.070313 6.695313-26.066406 6.695313-13.828126 0-27.65625-5.261719-38.183594-15.789063-21.054688-21.054687-21.054688-55.3125 0-76.367187 21.054687-21.054688 55.3125-21.054688 76.367187 0 17.375 17.375 20.394531 43.734375 9.097657 64.25l41.816406 41.816406c5.855468 5.859375 5.855468 15.355469 0 21.214844zm0 0"/></svg>