<svg height="512pt" viewBox="-46 0 512 512" width="512pt" xmlns="http://www.w3.org/2000/svg"><path d="m210 512c-5.683594 0-10.875-3.210938-13.417969-8.292969l-46.140625-92.277343c-88.921875-26.21875-150.441406-108.070313-150.441406-201.429688 0-115.792969 94.207031-210 210-210s210 94.207031 210 210c0 93.359375-61.519531 175.214844-150.445312 201.429688l-46.140626 92.277343c-2.539062 5.082031-7.734374 8.292969-13.414062 8.292969zm0 0" fill="#ff415b"/><path d="m210 0v512c5.679688 0 10.875-3.210938 13.414062-8.292969l46.140626-92.277343c88.925781-26.214844 150.445312-108.070313 150.445312-201.429688 0-115.792969-94.207031-210-210-210zm0 0" fill="#b20042"/><path d="m303.621094 273.640625-62.542969-62.542969c-5.855469-5.859375-15.351563-5.859375-21.210937 0-5.859376 5.855469-5.859376 15.355469 0 21.210938l62.542968 62.542968c2.929688 2.929688 6.765625 4.394532 10.605469 4.394532 3.835937 0 7.675781-1.464844 10.605469-4.394532 5.859375-5.855468 5.859375-15.355468 0-21.210937zm0 0" fill="#e9dfda"/><path d="m186.949219 253.144531c-19.207031 0-38.410157-7.308593-53.03125-21.929687-29.242188-29.242188-29.242188-76.824219 0-106.066406 29.238281-29.242188 76.820312-29.242188 106.0625 0 29.242187 29.242187 29.242187 76.824218 0 106.066406-14.621094 14.621094-33.824219 21.929687-53.03125 21.929687zm0-119.945312c-11.523438 0-23.046875 4.390625-31.820313 13.160156-17.542968 17.546875-17.542968 46.09375 0 63.640625 17.546875 17.546875 46.097656 17.546875 63.640625 0 17.546875-17.546875 17.546875-46.09375 0-63.640625-8.773437-8.769531-20.296875-13.160156-31.820312-13.160156zm0 0" fill="#f3eee9"/><path d="m239.980469 125.148438c-8.691407-8.695313-19.011719-14.78125-29.980469-18.304688v32.6875c3.128906 1.867188 6.078125 4.140625 8.769531 6.828125 17.542969 17.546875 17.542969 46.09375 0 63.640625-2.691406 2.691406-5.640625 4.964844-8.769531 6.828125v32.691406c10.96875-3.527343 21.289062-9.613281 29.980469-18.304687 29.242187-29.242188 29.242187-76.824219 0-106.066406zm0 0" fill="#e9dfda"/></svg>